<?xml version="1.0" encoding="UTF-8" standalone="no"?>
<!-- Created with Inkscape (http://www.inkscape.org/) -->

<svg
   version="1.1"
   id="svg2"
   width="2558.2888"
   height="489.41599"
   viewBox="0 0 2558.2888 489.41599"
   xmlns="http://www.w3.org/2000/svg"
   xmlns:svg="http://www.w3.org/2000/svg">
  <defs
     id="defs6">
    <clipPath
       clipPathUnits="userSpaceOnUse"
       id="clipPath18">
      <path
         d="M 0,0 H 1920 V 1080 H 0 Z"
         id="path16" />
    </clipPath>
    <clipPath
       clipPathUnits="userSpaceOnUse"
       id="clipPath42">
      <path
         d="m 116.886,523.205 h 37.682 v 62.25 h 50.63 v 20.75 h -50.63 v 24.402 h -21.58 v -24.402 h -28.054 l 14.608,34.03 h 90.802 v 21.082 h -81.672 l 5.644,13.28 h -24.734 l -5.644,-13.28 H 67.916 V 640.235 H 94.808 L 80.2,606.205 H 69.742 v -20.75 h 63.246 v -41.002 h -16.102 z m -55.278,3.984 h 25.066 c 7.636,14.774 14.442,30.71 19.92,48.472 H 83.52 C 78.042,558.729 70.572,542.959 61.608,527.189 Z m 110.058,48.472 c 5.478,-17.762 12.284,-33.698 19.92,-48.472 h 25.066 c -8.964,15.77 -16.434,31.54 -21.912,48.472 z m 65.57,-9.794 v -41.998 h 134.128 v 41.998 z m -9.296,39.674 h 17.596 v -33.864 h 114.208 v 33.864 H 379 v 32.536 H 227.94 Z m 2.49,41.998 h 33.034 v -7.138 h 21.58 v 7.138 h 36.852 v -7.138 h 21.58 v 7.138 h 33.034 v 19.754 h -33.034 v 6.972 h -21.58 v -6.972 h -36.852 v 6.972 h -21.58 v -6.972 H 230.43 Z m 19.09,-36.022 v 7.138 h 107.9 v -7.138 z m 9.296,-70.882 v 8.466 h 90.968 v -8.466 z m 8.3,46.812 v 8.3 h 71.048 v -8.3 z m 133.962,-50.962 h 21.248 v 60.922 h 34.694 v -74.202 h 21.58 v 74.202 h 34.694 v -39.674 h -13.28 v -21.248 h 34.528 v 82.336 H 478.6 v 20.086 h 63.91 v 21.248 H 478.6 v 15.77 h -21.58 v -15.77 h -63.91 v -21.248 h 63.91 v -20.086 h -55.942 z m 156.372,55.61 h 149.4 v 22.908 h -149.4 z m 228.25,82.17 v -19.256 h -60.092 v -93.79 H 785.7 v -38.014 h 21.58 v 38.014 h 60.092 v 93.79 H 807.28 v 19.256 z m -38.512,-91.632 v 50.962 H 785.7 v -50.962 z m 60.092,0 v 50.962 h 38.512 v -50.962 z m 139.938,24.07 v -27.224 h 27.224 v 27.224 z"
         id="path40" />
    </clipPath>
    <clipPath
       clipPathUnits="userSpaceOnUse"
       id="clipPath48">
      <path
         d="m 116.886,523.205 h 37.682 v 62.25 h 50.63 v 20.75 h -50.63 v 24.402 h -21.58 v -24.402 h -28.054 l 14.608,34.03 h 90.802 v 21.082 h -81.672 l 5.644,13.28 h -24.734 l -5.644,-13.28 H 67.916 V 640.235 H 94.808 L 80.2,606.205 H 69.742 v -20.75 h 63.246 v -41.002 h -16.102 z m -55.278,3.984 h 25.066 c 7.636,14.774 14.442,30.71 19.92,48.472 H 83.52 C 78.042,558.729 70.572,542.959 61.608,527.189 Z m 110.058,48.472 c 5.478,-17.762 12.284,-33.698 19.92,-48.472 h 25.066 c -8.964,15.77 -16.434,31.54 -21.912,48.472 z m 65.57,-9.794 v -41.998 h 134.128 v 41.998 z m -9.296,39.674 h 17.596 v -33.864 h 114.208 v 33.864 H 379 v 32.536 H 227.94 Z m 2.49,41.998 h 33.034 v -7.138 h 21.58 v 7.138 h 36.852 v -7.138 h 21.58 v 7.138 h 33.034 v 19.754 h -33.034 v 6.972 h -21.58 v -6.972 h -36.852 v 6.972 h -21.58 v -6.972 H 230.43 Z m 19.09,-36.022 v 7.138 h 107.9 v -7.138 z m 9.296,-70.882 v 8.466 h 90.968 v -8.466 z m 8.3,46.812 v 8.3 h 71.048 v -8.3 z m 133.962,-50.962 h 21.248 v 60.922 h 34.694 v -74.202 h 21.58 v 74.202 h 34.694 v -39.674 h -13.28 v -21.248 h 34.528 v 82.336 H 478.6 v 20.086 h 63.91 v 21.248 H 478.6 v 15.77 h -21.58 v -15.77 h -63.91 v -21.248 h 63.91 v -20.086 h -55.942 z m 156.372,55.61 h 149.4 v 22.908 h -149.4 z m 228.25,82.17 v -19.256 h -60.092 v -93.79 H 785.7 v -38.014 h 21.58 v 38.014 h 60.092 v 93.79 H 807.28 v 19.256 z m -38.512,-91.632 v 50.962 H 785.7 v -50.962 z m 60.092,0 v 50.962 h 38.512 v -50.962 z m 139.938,24.07 v -27.224 h 27.224 v 27.224 z"
         id="path46" />
    </clipPath>
    <linearGradient
       x1="0"
       y1="0"
       x2="100"
       y2="0"
       gradientUnits="userSpaceOnUse"
       gradientTransform="matrix(9.23411,0.7017538,0.1710632,-2.250955,56.31949,564.4773)"
       spreadMethod="pad"
       id="linearGradient62">
      <stop
         style="stop-opacity:1;stop-color:#000000"
         offset="0"
         id="stop58" />
      <stop
         style="stop-opacity:1;stop-color:#000000"
         offset="1"
         id="stop60" />
    </linearGradient>
    <clipPath
       clipPathUnits="userSpaceOnUse"
       id="clipPath72">
      <path
         d="m 1137.454,524.533 h 64.076 v 21.58 h -42.33 v 63.91 c 13.944,2.988 27.556,6.308 40.67,10.79 v 23.074 c -13.446,-4.482 -27.058,-8.3 -40.67,-11.454 v 40.172 h -21.746 z m -88.644,16.766 42.33,10.458 v -28.552 h 21.746 v 149.4 h -21.746 v -36.52 h -40.67 v -21.746 h 40.67 v -40.504 l -42.33,-10.458 z m 162.68,-18.094 h 23.904 c 5.644,21.414 8.3,42.33 8.964,65.238 h 16.766 v -65.238 h 39.674 v 21.248 h -18.426 v 43.99 h 15.604 c 10.126,-22.908 22.908,-43.824 39.342,-65.238 h 26.228 c -8.466,10.458 -16.102,20.584 -22.576,30.544 h 9.96 l 14.94,26.394 h -21.414 l -9.628,-16.932 c -5.146,8.466 -9.628,16.766 -13.446,25.232 h 43.658 v 19.92 h -120.35 v 41.666 h 116.2 v 20.916 h -137.448 v -66.566 c 0,-31.042 -2.822,-54.116 -11.952,-81.174 z m 44.322,96.446 h 97.276 v 19.754 h -97.276 z m 120.848,-96.446 h 23.904 c 8.134,25.398 10.624,49.634 10.624,76.692 v 35.524 h 117.362 v 21.912 h -60.258 v 17.596 h -21.912 v -17.596 h -57.104 v -57.436 c 0,-26.726 -2.656,-51.792 -12.616,-76.692 z m 312.412,68.558 h -86.984 v -68.06 h 86.984 z m -146.246,-20.252 17.264,4.316 v -32.536 h -12.782 v -20.086 h 34.362 v 57.934 l 14.94,3.652 v 9.628 h 20.75 c 3.652,6.972 6.308,14.94 7.968,23.738 h 9.96 v -21.58 h 20.584 v 21.58 h 9.96 c 1.66,-8.798 4.316,-16.766 7.968,-23.738 h 21.248 c -4.482,7.802 -7.802,15.604 -9.96,23.738 h 7.802 v 17.264 h -10.624 l 5.976,15.272 h -18.592 l -5.976,-15.272 h -7.802 v 17.762 c 11.288,0.83 22.078,1.66 32.204,2.822 v 17.596 c -26.892,-2.822 -55.444,-4.316 -85.822,-4.316 v -17.596 c 11.454,0 22.41,0.166 33.034,0.498 v -16.766 h -8.632 l -5.312,13.612 h -18.592 l 5.312,-13.612 h -11.454 v -17.264 h 9.462 c -1.992,-7.802 -5.312,-15.438 -9.462,-22.908 v 12.616 l -14.94,-3.652 v 25.232 h 13.28 v 20.916 h -13.28 v 23.074 h -21.58 v -23.074 h -15.604 v -20.916 h 15.604 v -30.544 l -17.264,-4.316 z m 79.514,-32.038 v 10.956 h 13.944 v -10.956 z m 0,25.564 v 10.956 h 13.944 v -10.956 z m 32.536,-25.564 v 10.956 h 13.944 v -10.956 z m 0,25.564 v 10.956 h 13.944 v -10.956 z m 196.212,40.172 h -27.058 v 25.398 h 32.702 v 21.58 h -32.702 v 21.248 h -21.58 v -68.226 h -27.888 v -80.344 h 76.526 z m -144.918,-73.704 65.072,3.32 v 21.746 l -65.072,-3.32 z m 1.494,100.43 h 62.084 v 21.58 h -20.252 v 19.09 h -21.414 v -19.09 h -20.418 z m 3.818,-7.636 4.482,-63.08 h 18.094 l -4.482,63.08 z m 29.382,-63.08 h 18.094 l 6.142,63.08 h -18.094 z m 54.614,-14.94 v 37.516 h 34.694 v -37.516 z"
         id="path70" />
    </clipPath>
    <clipPath
       clipPathUnits="userSpaceOnUse"
       id="clipPath78">
      <path
         d="m 1137.454,524.533 h 64.076 v 21.58 h -42.33 v 63.91 c 13.944,2.988 27.556,6.308 40.67,10.79 v 23.074 c -13.446,-4.482 -27.058,-8.3 -40.67,-11.454 v 40.172 h -21.746 z m -88.644,16.766 42.33,10.458 v -28.552 h 21.746 v 149.4 h -21.746 v -36.52 h -40.67 v -21.746 h 40.67 v -40.504 l -42.33,-10.458 z m 162.68,-18.094 h 23.904 c 5.644,21.414 8.3,42.33 8.964,65.238 h 16.766 v -65.238 h 39.674 v 21.248 h -18.426 v 43.99 h 15.604 c 10.126,-22.908 22.908,-43.824 39.342,-65.238 h 26.228 c -8.466,10.458 -16.102,20.584 -22.576,30.544 h 9.96 l 14.94,26.394 h -21.414 l -9.628,-16.932 c -5.146,8.466 -9.628,16.766 -13.446,25.232 h 43.658 v 19.92 h -120.35 v 41.666 h 116.2 v 20.916 h -137.448 v -66.566 c 0,-31.042 -2.822,-54.116 -11.952,-81.174 z m 44.322,96.446 h 97.276 v 19.754 h -97.276 z m 120.848,-96.446 h 23.904 c 8.134,25.398 10.624,49.634 10.624,76.692 v 35.524 h 117.362 v 21.912 h -60.258 v 17.596 h -21.912 v -17.596 h -57.104 v -57.436 c 0,-26.726 -2.656,-51.792 -12.616,-76.692 z m 312.412,68.558 h -86.984 v -68.06 h 86.984 z m -146.246,-20.252 17.264,4.316 v -32.536 h -12.782 v -20.086 h 34.362 v 57.934 l 14.94,3.652 v 9.628 h 20.75 c 3.652,6.972 6.308,14.94 7.968,23.738 h 9.96 v -21.58 h 20.584 v 21.58 h 9.96 c 1.66,-8.798 4.316,-16.766 7.968,-23.738 h 21.248 c -4.482,7.802 -7.802,15.604 -9.96,23.738 h 7.802 v 17.264 h -10.624 l 5.976,15.272 h -18.592 l -5.976,-15.272 h -7.802 v 17.762 c 11.288,0.83 22.078,1.66 32.204,2.822 v 17.596 c -26.892,-2.822 -55.444,-4.316 -85.822,-4.316 v -17.596 c 11.454,0 22.41,0.166 33.034,0.498 v -16.766 h -8.632 l -5.312,13.612 h -18.592 l 5.312,-13.612 h -11.454 v -17.264 h 9.462 c -1.992,-7.802 -5.312,-15.438 -9.462,-22.908 v 12.616 l -14.94,-3.652 v 25.232 h 13.28 v 20.916 h -13.28 v 23.074 h -21.58 v -23.074 h -15.604 v -20.916 h 15.604 v -30.544 l -17.264,-4.316 z m 79.514,-32.038 v 10.956 h 13.944 v -10.956 z m 0,25.564 v 10.956 h 13.944 v -10.956 z m 32.536,-25.564 v 10.956 h 13.944 v -10.956 z m 0,25.564 v 10.956 h 13.944 v -10.956 z m 196.212,40.172 h -27.058 v 25.398 h 32.702 v 21.58 h -32.702 v 21.248 h -21.58 v -68.226 h -27.888 v -80.344 h 76.526 z m -144.918,-73.704 65.072,3.32 v 21.746 l -65.072,-3.32 z m 1.494,100.43 h 62.084 v 21.58 h -20.252 v 19.09 h -21.414 v -19.09 h -20.418 z m 3.818,-7.636 4.482,-63.08 h 18.094 l -4.482,63.08 z m 29.382,-63.08 h 18.094 l 6.142,63.08 h -18.094 z m 54.614,-14.94 v 37.516 h 34.694 v -37.516 z"
         id="path76" />
    </clipPath>
    <linearGradient
       x1="0"
       y1="0"
       x2="100"
       y2="0"
       gradientUnits="userSpaceOnUse"
       gradientTransform="matrix(7.780605,2.578865,1.268724,-3.827823,1063.741,470.1237)"
       spreadMethod="pad"
       id="linearGradient92">
      <stop
         style="stop-opacity:1;stop-color:#1e8bb6"
         offset="0"
         id="stop88" />
      <stop
         style="stop-opacity:1;stop-color:#74d400"
         offset="1"
         id="stop90" />
    </linearGradient>
    <clipPath
       clipPathUnits="userSpaceOnUse"
       id="clipPath102">
      <path
         d="m 47.88917,340.4242 h 47.955 c 19.46003,0 31.83103,10.981 31.83103,28.217 0,10.008 -7.506,19.321 -18.765,24.186 7.784,5.004 12.788,12.232 12.788,19.46 0,16.263 -11.12,25.437 -29.05103,25.437 h -44.758 z m 22.935,16.819 v 26.41 h 15.012 c 12.371,0 18.62603,-4.865 18.62603,-11.954 0,-8.757 -5.28203,-14.456 -14.59503,-14.456 z m 0,39.893 v 26.132 h 13.205 c 10.564,0 14.595,-6.116 14.595,-13.483 0,-6.255 -4.448,-12.649 -12.093,-12.649 z m 136.22003,-34.194 c -7.645,-5.699 -16.263,-8.479 -25.854,-8.479 -13.622,0 -21.406,5.977 -23.491,17.931 h 54.071 c 0.139,2.641 0.278,4.587 0.278,5.977 0,25.159 -14.595,39.059 -37.947,39.059 -23.491,0 -38.086,-13.9 -38.086,-39.059 0,-25.437 15.568,-40.171 45.175,-40.171 8.757,0 18.765,1.946 25.854,6.255 z m -48.65,25.02 c 2.224,8.896 7.923,13.622 15.707,13.622 8.34,0 14.595,-4.309 16.958,-13.622 z m 65.191,27.522 v -75.06 h 22.24 v 75.06 z m 0,9.591 h 22.24 v 22.24 h -22.24 z m 89.655,-86.458 c 11.537,0 20.155,1.251 28.078,5.004 v 19.182 c -6.533,-4.031 -15.29,-6.672 -23.769,-6.672 l -3.058,0.139 c -11.12,0.695 -21.267,5.977 -27.244,15.429 -2.919,4.587 -4.448,10.008 -4.448,16.124 0,22.935 13.066,34.194 32.387,34.194 8.062,0 16.819,-1.668 26.132,-5.143 v 17.236 c -6.811,3.197 -18.348,5.421 -28.773,5.421 -20.989,0 -37.947,-8.479 -46.982,-23.908 -4.587,-7.784 -6.811,-17.097 -6.811,-27.8 0,-29.885 21.545,-49.206 54.488,-49.206 z m 40.588,108.559 v -106.752 h 22.24 v 52.82 c 3.892,3.336 9.869,5.838 13.344,5.838 6.116,0 11.259,-3.753 11.259,-9.174 v -49.484 h 22.24 v 53.237 c 0,13.344 -9.035,22.518 -23.352,22.518 -8.34,0 -16.819,-3.197 -23.491,-8.757 v 39.754 z m 149.842,-84.234 c -7.645,-5.699 -16.263,-8.479 -25.854,-8.479 -13.622,0 -21.406,5.977 -23.491,17.931 h 54.071 c 0.139,2.641 0.278,4.587 0.278,5.977 0,25.159 -14.595,39.059 -37.947,39.059 -23.491,0 -38.086,-13.9 -38.086,-39.059 0,-25.437 15.568,-40.171 45.175,-40.171 8.757,0 18.765,1.946 25.854,6.255 z m -48.65,25.02 c 2.224,8.896 7.923,13.622 15.707,13.622 8.34,0 14.595,-4.309 16.958,-13.622 z m 63.384,27.8 v -75.06 h 22.24 v 51.708 c 4.031,3.753 10.842,6.672 14.734,6.672 6.116,0 11.259,-3.753 11.259,-9.174 v -49.206 h 22.24 v 52.959 c 0,13.344 -9.035,22.518 -23.352,22.518 -8.757,0 -18.07,-3.475 -24.881,-9.452 v 9.035 z m 119.123,21.962 v -97.3 h 22.935 v 39.476 h 10.008 c 11.815,-12.093 17.792,-21.823 26.549,-39.476 h 21.128 c -7.645,16.541 -15.568,28.634 -26.271,40.449 14.317,2.78 22.518,12.788 22.518,27.939 0,18.348 -12.232,28.912 -31.831,28.912 z m 22.935,-41.839 v 25.854 h 20.433 c 9.313,0 14.873,-5.56 14.873,-12.927 0,-7.228 -5.421,-12.927 -14.873,-12.927 z m 96.605,-57.268 c 7.923,0 14.734,2.224 20.433,6.811 0.417,-2.085 0.973,-3.753 1.668,-5.004 h 20.85 c -1.807,4.17 -2.78,10.008 -2.78,17.514 v 57.546 h -22.24 v -4.726 c -5.56,4.031 -12.232,6.533 -18.487,6.533 -20.572,0 -34.194,-16.124 -34.194,-39.476 0,-23.908 14.039,-39.198 34.75,-39.198 z m -13.483,39.198 c 0,13.066 8.479,23.352 18.348,23.352 4.587,0 10.703,-1.112 14.734,-7.645 v -31.136 c -4.031,-6.533 -10.286,-7.784 -14.734,-7.784 -9.869,0 -18.348,10.425 -18.348,23.213 z m 97.578,-39.198 c 8.201,0 15.151,2.224 20.989,6.811 0.417,-2.085 0.973,-3.753 1.668,-5.004 h 20.85 c -1.807,4.17 -2.78,10.008 -2.78,17.375 v 89.516 h -22.24 v -36.696 c -5.56,4.309 -12.232,6.533 -18.487,6.533 -20.572,0 -34.194,-16.124 -34.194,-39.476 0,-23.213 13.205,-39.059 34.194,-39.059 z m -12.927,39.059 c 0,13.066 8.479,23.491 18.348,23.491 5.004,0 11.815,-1.668 15.707,-9.452 v -27.939 c -3.892,-7.645 -10.703,-9.313 -15.707,-9.313 -9.869,0 -18.348,10.425 -18.348,23.213 z m 67.971,37.808 v -75.06 h 22.24 v 75.06 z m 0,9.591 h 22.24 v 22.24 h -22.24 z m 73.253,-86.458 c 23.352,0 39.3368,14.873 39.3368,39.893 0,25.02 -15.0118,38.781 -39.3368,38.781 -24.464,0 -39.476,-13.761 -39.476,-38.781 0,-25.02 16.124,-39.893 39.476,-39.893 z m -17.514,39.893 c 0,14.873 6.811,22.657 17.514,22.657 10.703,0 17.375,-7.784 17.375,-22.657 0,-14.317 -6.95,-23.769 -17.375,-23.769 -10.425,0 -17.514,9.452 -17.514,23.769 z m 137.7488,-39.754 c 19.182,0.834 31.136,12.649 31.136,29.329 0,11.815 -5.143,19.46 -13.622,24.464 -4.309,2.363 -9.73,4.587 -16.541,6.533 -11.259,3.892 -16.541,7.923 -16.541,13.344 0,5.977 5.143,9.452 14.595,9.452 7.367,0 18.209,-2.224 25.437,-5.421 v 17.931 c -6.672,2.919 -17.236,5.143 -26.827,5.143 -1.807,0 -3.058,0 -3.892,-0.139 -19.46,-0.834 -30.997,-12.371 -30.997,-27.8 0,-10.564 4.031,-17.097 11.954,-21.545 3.892,-2.363 9.313,-4.587 16.402,-6.811 12.232,-3.753 17.514,-10.008 17.514,-17.236 0,-5.143 -5.004,-10.008 -13.205,-10.008 -10.008,0 -23.352,4.865 -33.499,11.12 v -20.433 c 9.73,-5.421 20.85,-8.062 33.36,-8.062 2.085,0 3.753,0 4.726,0.139 z m 36.14,76.728 v -16.958 h 10.842 v -36.835 c 0,-11.815 3.336,-17.792 9.591,-20.433 3.197,-1.251 7.923,-1.946 14.317,-1.946 3.336,0 6.95,0.278 10.842,0.695 v 17.097 c -1.529,-0.417 -3.336,-0.556 -6.116,-0.556 -6.533,0 -7.784,2.085 -7.784,9.73 v 32.248 h 14.456 v 16.958 h -14.456 v 21.406 h -20.85 v -21.406 z m 86.458,-76.867 c 7.923,0 14.734,2.224 20.433,6.811 0.417,-2.085 0.973,-3.753 1.668,-5.004 h 20.85 c -1.807,4.17 -2.78,10.008 -2.78,17.514 v 57.546 h -22.24 v -4.726 c -5.56,4.031 -12.232,6.533 -18.487,6.533 -20.572,0 -34.194,-16.124 -34.194,-39.476 0,-23.908 14.039,-39.198 34.75,-39.198 z m -13.483,39.198 c 0,13.066 8.479,23.352 18.348,23.352 4.587,0 10.703,-1.112 14.734,-7.645 v -31.136 c -4.031,-6.533 -10.286,-7.784 -14.734,-7.784 -9.869,0 -18.348,10.425 -18.348,23.213 z m 61.16,37.669 v -16.958 h 10.842 v -36.835 c 0,-11.815 3.336,-17.792 9.591,-20.433 3.197,-1.251 7.923,-1.946 14.317,-1.946 3.336,0 6.95,0.278 10.842,0.695 v 17.097 c -1.529,-0.417 -3.336,-0.556 -6.116,-0.556 -6.533,0 -7.784,2.085 -7.784,9.73 v 32.248 h 14.456 v 16.958 h -14.456 v 21.406 h -20.85 v -21.406 z m 56.295,0 v -75.06 h 22.24 v 75.06 z m 0,9.591 h 22.24 v 22.24 h -22.24 z m 73.253,-86.458 c 23.352,0 39.337,14.873 39.337,39.893 0,25.02 -15.012,38.781 -39.337,38.781 -24.464,0 -39.476,-13.761 -39.476,-38.781 0,-25.02 16.124,-39.893 39.476,-39.893 z m -17.514,39.893 c 0,14.873 6.811,22.657 17.514,22.657 10.703,0 17.375,-7.784 17.375,-22.657 0,-14.317 -6.95,-23.769 -17.375,-23.769 -10.425,0 -17.514,9.452 -17.514,23.769 z m 66.581,37.252 v -75.06 h 22.24 v 51.708 c 4.031,3.753 10.842,6.672 14.734,6.672 6.116,0 11.259,-3.753 11.259,-9.174 v -49.206 h 22.24 v 52.959 c 0,13.344 -9.035,22.518 -23.352,22.518 -8.757,0 -18.07,-3.475 -24.881,-9.452 v 9.035 z"
         id="path100" />
    </clipPath>
    <clipPath
       clipPathUnits="userSpaceOnUse"
       id="clipPath108">
      <path
         d="m 47.88917,340.4242 h 47.955 c 19.46003,0 31.83103,10.981 31.83103,28.217 0,10.008 -7.506,19.321 -18.765,24.186 7.784,5.004 12.788,12.232 12.788,19.46 0,16.263 -11.12,25.437 -29.05103,25.437 h -44.758 z m 22.935,16.819 v 26.41 h 15.012 c 12.371,0 18.62603,-4.865 18.62603,-11.954 0,-8.757 -5.28203,-14.456 -14.59503,-14.456 z m 0,39.893 v 26.132 h 13.205 c 10.564,0 14.595,-6.116 14.595,-13.483 0,-6.255 -4.448,-12.649 -12.093,-12.649 z m 136.22003,-34.194 c -7.645,-5.699 -16.263,-8.479 -25.854,-8.479 -13.622,0 -21.406,5.977 -23.491,17.931 h 54.071 c 0.139,2.641 0.278,4.587 0.278,5.977 0,25.159 -14.595,39.059 -37.947,39.059 -23.491,0 -38.086,-13.9 -38.086,-39.059 0,-25.437 15.568,-40.171 45.175,-40.171 8.757,0 18.765,1.946 25.854,6.255 z m -48.65,25.02 c 2.224,8.896 7.923,13.622 15.707,13.622 8.34,0 14.595,-4.309 16.958,-13.622 z m 65.191,27.522 v -75.06 h 22.24 v 75.06 z m 0,9.591 h 22.24 v 22.24 h -22.24 z m 89.655,-86.458 c 11.537,0 20.155,1.251 28.078,5.004 v 19.182 c -6.533,-4.031 -15.29,-6.672 -23.769,-6.672 l -3.058,0.139 c -11.12,0.695 -21.267,5.977 -27.244,15.429 -2.919,4.587 -4.448,10.008 -4.448,16.124 0,22.935 13.066,34.194 32.387,34.194 8.062,0 16.819,-1.668 26.132,-5.143 v 17.236 c -6.811,3.197 -18.348,5.421 -28.773,5.421 -20.989,0 -37.947,-8.479 -46.982,-23.908 -4.587,-7.784 -6.811,-17.097 -6.811,-27.8 0,-29.885 21.545,-49.206 54.488,-49.206 z m 40.588,108.559 v -106.752 h 22.24 v 52.82 c 3.892,3.336 9.869,5.838 13.344,5.838 6.116,0 11.259,-3.753 11.259,-9.174 v -49.484 h 22.24 v 53.237 c 0,13.344 -9.035,22.518 -23.352,22.518 -8.34,0 -16.819,-3.197 -23.491,-8.757 v 39.754 z m 149.842,-84.234 c -7.645,-5.699 -16.263,-8.479 -25.854,-8.479 -13.622,0 -21.406,5.977 -23.491,17.931 h 54.071 c 0.139,2.641 0.278,4.587 0.278,5.977 0,25.159 -14.595,39.059 -37.947,39.059 -23.491,0 -38.086,-13.9 -38.086,-39.059 0,-25.437 15.568,-40.171 45.175,-40.171 8.757,0 18.765,1.946 25.854,6.255 z m -48.65,25.02 c 2.224,8.896 7.923,13.622 15.707,13.622 8.34,0 14.595,-4.309 16.958,-13.622 z m 63.384,27.8 v -75.06 h 22.24 v 51.708 c 4.031,3.753 10.842,6.672 14.734,6.672 6.116,0 11.259,-3.753 11.259,-9.174 v -49.206 h 22.24 v 52.959 c 0,13.344 -9.035,22.518 -23.352,22.518 -8.757,0 -18.07,-3.475 -24.881,-9.452 v 9.035 z m 119.123,21.962 v -97.3 h 22.935 v 39.476 h 10.008 c 11.815,-12.093 17.792,-21.823 26.549,-39.476 h 21.128 c -7.645,16.541 -15.568,28.634 -26.271,40.449 14.317,2.78 22.518,12.788 22.518,27.939 0,18.348 -12.232,28.912 -31.831,28.912 z m 22.935,-41.839 v 25.854 h 20.433 c 9.313,0 14.873,-5.56 14.873,-12.927 0,-7.228 -5.421,-12.927 -14.873,-12.927 z m 96.605,-57.268 c 7.923,0 14.734,2.224 20.433,6.811 0.417,-2.085 0.973,-3.753 1.668,-5.004 h 20.85 c -1.807,4.17 -2.78,10.008 -2.78,17.514 v 57.546 h -22.24 v -4.726 c -5.56,4.031 -12.232,6.533 -18.487,6.533 -20.572,0 -34.194,-16.124 -34.194,-39.476 0,-23.908 14.039,-39.198 34.75,-39.198 z m -13.483,39.198 c 0,13.066 8.479,23.352 18.348,23.352 4.587,0 10.703,-1.112 14.734,-7.645 v -31.136 c -4.031,-6.533 -10.286,-7.784 -14.734,-7.784 -9.869,0 -18.348,10.425 -18.348,23.213 z m 97.578,-39.198 c 8.201,0 15.151,2.224 20.989,6.811 0.417,-2.085 0.973,-3.753 1.668,-5.004 h 20.85 c -1.807,4.17 -2.78,10.008 -2.78,17.375 v 89.516 h -22.24 v -36.696 c -5.56,4.309 -12.232,6.533 -18.487,6.533 -20.572,0 -34.194,-16.124 -34.194,-39.476 0,-23.213 13.205,-39.059 34.194,-39.059 z m -12.927,39.059 c 0,13.066 8.479,23.491 18.348,23.491 5.004,0 11.815,-1.668 15.707,-9.452 v -27.939 c -3.892,-7.645 -10.703,-9.313 -15.707,-9.313 -9.869,0 -18.348,10.425 -18.348,23.213 z m 67.971,37.808 v -75.06 h 22.24 v 75.06 z m 0,9.591 h 22.24 v 22.24 h -22.24 z m 73.253,-86.458 c 23.352,0 39.3368,14.873 39.3368,39.893 0,25.02 -15.0118,38.781 -39.3368,38.781 -24.464,0 -39.476,-13.761 -39.476,-38.781 0,-25.02 16.124,-39.893 39.476,-39.893 z m -17.514,39.893 c 0,14.873 6.811,22.657 17.514,22.657 10.703,0 17.375,-7.784 17.375,-22.657 0,-14.317 -6.95,-23.769 -17.375,-23.769 -10.425,0 -17.514,9.452 -17.514,23.769 z m 137.7488,-39.754 c 19.182,0.834 31.136,12.649 31.136,29.329 0,11.815 -5.143,19.46 -13.622,24.464 -4.309,2.363 -9.73,4.587 -16.541,6.533 -11.259,3.892 -16.541,7.923 -16.541,13.344 0,5.977 5.143,9.452 14.595,9.452 7.367,0 18.209,-2.224 25.437,-5.421 v 17.931 c -6.672,2.919 -17.236,5.143 -26.827,5.143 -1.807,0 -3.058,0 -3.892,-0.139 -19.46,-0.834 -30.997,-12.371 -30.997,-27.8 0,-10.564 4.031,-17.097 11.954,-21.545 3.892,-2.363 9.313,-4.587 16.402,-6.811 12.232,-3.753 17.514,-10.008 17.514,-17.236 0,-5.143 -5.004,-10.008 -13.205,-10.008 -10.008,0 -23.352,4.865 -33.499,11.12 v -20.433 c 9.73,-5.421 20.85,-8.062 33.36,-8.062 2.085,0 3.753,0 4.726,0.139 z m 36.14,76.728 v -16.958 h 10.842 v -36.835 c 0,-11.815 3.336,-17.792 9.591,-20.433 3.197,-1.251 7.923,-1.946 14.317,-1.946 3.336,0 6.95,0.278 10.842,0.695 v 17.097 c -1.529,-0.417 -3.336,-0.556 -6.116,-0.556 -6.533,0 -7.784,2.085 -7.784,9.73 v 32.248 h 14.456 v 16.958 h -14.456 v 21.406 h -20.85 v -21.406 z m 86.458,-76.867 c 7.923,0 14.734,2.224 20.433,6.811 0.417,-2.085 0.973,-3.753 1.668,-5.004 h 20.85 c -1.807,4.17 -2.78,10.008 -2.78,17.514 v 57.546 h -22.24 v -4.726 c -5.56,4.031 -12.232,6.533 -18.487,6.533 -20.572,0 -34.194,-16.124 -34.194,-39.476 0,-23.908 14.039,-39.198 34.75,-39.198 z m -13.483,39.198 c 0,13.066 8.479,23.352 18.348,23.352 4.587,0 10.703,-1.112 14.734,-7.645 v -31.136 c -4.031,-6.533 -10.286,-7.784 -14.734,-7.784 -9.869,0 -18.348,10.425 -18.348,23.213 z m 61.16,37.669 v -16.958 h 10.842 v -36.835 c 0,-11.815 3.336,-17.792 9.591,-20.433 3.197,-1.251 7.923,-1.946 14.317,-1.946 3.336,0 6.95,0.278 10.842,0.695 v 17.097 c -1.529,-0.417 -3.336,-0.556 -6.116,-0.556 -6.533,0 -7.784,2.085 -7.784,9.73 v 32.248 h 14.456 v 16.958 h -14.456 v 21.406 h -20.85 v -21.406 z m 56.295,0 v -75.06 h 22.24 v 75.06 z m 0,9.591 h 22.24 v 22.24 h -22.24 z m 73.253,-86.458 c 23.352,0 39.337,14.873 39.337,39.893 0,25.02 -15.012,38.781 -39.337,38.781 -24.464,0 -39.476,-13.761 -39.476,-38.781 0,-25.02 16.124,-39.893 39.476,-39.893 z m -17.514,39.893 c 0,14.873 6.811,22.657 17.514,22.657 10.703,0 17.375,-7.784 17.375,-22.657 0,-14.317 -6.95,-23.769 -17.375,-23.769 -10.425,0 -17.514,9.452 -17.514,23.769 z m 66.581,37.252 v -75.06 h 22.24 v 51.708 c 4.031,3.753 10.842,6.672 14.734,6.672 6.116,0 11.259,-3.753 11.259,-9.174 v -49.206 h 22.24 v 52.959 c 0,13.344 -9.035,22.518 -23.352,22.518 -8.757,0 -18.07,-3.475 -24.881,-9.452 v 9.035 z"
         id="path106" />
    </clipPath>
    <linearGradient
       x1="0"
       y1="0"
       x2="100"
       y2="0"
       gradientUnits="userSpaceOnUse"
       gradientTransform="matrix(13.53921,4.487543,1.788083,-5.394762,101.5126,168.3805)"
       spreadMethod="pad"
       id="linearGradient122">
      <stop
         style="stop-opacity:1;stop-color:#1e8bb6"
         offset="0"
         id="stop118" />
      <stop
         style="stop-opacity:1;stop-color:#74d400"
         offset="1"
         id="stop120" />
    </linearGradient>
    <clipPath
       clipPathUnits="userSpaceOnUse"
       id="clipPath132">
      <path
         d="M 0,0 H 1920 V 1080 H 0 Z"
         id="path130" />
    </clipPath>
    <clipPath
       clipPathUnits="userSpaceOnUse"
       id="clipPath144">
      <path
         d="m 1880.52,387.1371 v 17.9601 h 11 v -17.9601 z"
         id="path142" />
    </clipPath>
    <clipPath
       clipPathUnits="userSpaceOnUse"
       id="clipPath150">
      <path
         d="M 0,0 H 1920 V 1080 H 0 Z"
         id="path148" />
    </clipPath>
    <clipPath
       clipPathUnits="userSpaceOnUse"
       id="clipPath162">
      <path
         d="m 1865.485,371.9726 v 48.2891 h 11 v -48.2891 z"
         id="path160" />
    </clipPath>
    <clipPath
       clipPathUnits="userSpaceOnUse"
       id="clipPath168">
      <path
         d="M 0,0 H 1920 V 1080 H 0 Z"
         id="path166" />
    </clipPath>
    <clipPath
       clipPathUnits="userSpaceOnUse"
       id="clipPath180">
      <path
         d="m 1848.025,364.3924 v 63.4495 h 11 v -63.4495 z"
         id="path178" />
    </clipPath>
    <clipPath
       clipPathUnits="userSpaceOnUse"
       id="clipPath186">
      <path
         d="M 0,0 H 1920 V 1080 H 0 Z"
         id="path184" />
    </clipPath>
    <clipPath
       clipPathUnits="userSpaceOnUse"
       id="clipPath192">
      <path
         d="m 1835.525,347.3924 h 36 v 97.4495 h -36 z"
         id="path190" />
    </clipPath>
    <clipPath
       clipPathUnits="userSpaceOnUse"
       id="clipPath196">
      <path
         d="m 1848,364 h 12 v 64 h -12 z"
         id="path194" />
    </clipPath>
    <clipPath
       clipPathUnits="userSpaceOnUse"
       id="clipPath218">
      <path
         d="m 1641.261,321.6798 v 148.8747 h 11 V 321.6798 Z"
         id="path216" />
    </clipPath>
    <clipPath
       clipPathUnits="userSpaceOnUse"
       id="clipPath224">
      <path
         d="M 0,0 H 1920 V 1080 H 0 Z"
         id="path222" />
    </clipPath>
    <clipPath
       clipPathUnits="userSpaceOnUse"
       id="clipPath230">
      <path
         d="m 1628.761,304.6798 h 36 v 182.8747 h -36 z"
         id="path228" />
    </clipPath>
    <clipPath
       clipPathUnits="userSpaceOnUse"
       id="clipPath234">
      <path
         d="m 1641,321 h 12 v 150 h -12 z"
         id="path232" />
    </clipPath>
    <clipPath
       clipPathUnits="userSpaceOnUse"
       id="clipPath256">
      <path
         d="m 1658.393,326.3891 v 130.0397 h 11 V 326.3891 Z"
         id="path254" />
    </clipPath>
    <clipPath
       clipPathUnits="userSpaceOnUse"
       id="clipPath262">
      <path
         d="M 0,0 H 1920 V 1080 H 0 Z"
         id="path260" />
    </clipPath>
    <clipPath
       clipPathUnits="userSpaceOnUse"
       id="clipPath268">
      <path
         d="m 1645.893,309.3891 h 36 v 164.0397 h -36 z"
         id="path266" />
    </clipPath>
    <clipPath
       clipPathUnits="userSpaceOnUse"
       id="clipPath272">
      <path
         d="m 1658,326 h 12 v 131 h -12 z"
         id="path270" />
    </clipPath>
    <clipPath
       clipPathUnits="userSpaceOnUse"
       id="clipPath294">
      <path
         d="m 1675.853,339.6862 v 103.4454 h 11 V 339.6862 Z"
         id="path292" />
    </clipPath>
    <clipPath
       clipPathUnits="userSpaceOnUse"
       id="clipPath300">
      <path
         d="M 0,0 H 1920 V 1080 H 0 Z"
         id="path298" />
    </clipPath>
    <clipPath
       clipPathUnits="userSpaceOnUse"
       id="clipPath306">
      <path
         d="m 1663.353,322.6862 h 36 v 137.4454 h -36 z"
         id="path304" />
    </clipPath>
    <clipPath
       clipPathUnits="userSpaceOnUse"
       id="clipPath310">
      <path
         d="m 1675,339 h 12 v 105 h -12 z"
         id="path308" />
    </clipPath>
    <clipPath
       clipPathUnits="userSpaceOnUse"
       id="clipPath332">
      <path
         d="m 1693.312,351.5349 v 79.748 h 11 v -79.748 z"
         id="path330" />
    </clipPath>
    <clipPath
       clipPathUnits="userSpaceOnUse"
       id="clipPath338">
      <path
         d="M 0,0 H 1920 V 1080 H 0 Z"
         id="path336" />
    </clipPath>
    <clipPath
       clipPathUnits="userSpaceOnUse"
       id="clipPath344">
      <path
         d="m 1680.812,334.5349 h 36 v 113.748 h -36 z"
         id="path342" />
    </clipPath>
    <clipPath
       clipPathUnits="userSpaceOnUse"
       id="clipPath348">
      <path
         d="m 1693,351 h 12 v 81 h -12 z"
         id="path346" />
    </clipPath>
    <clipPath
       clipPathUnits="userSpaceOnUse"
       id="clipPath370">
      <path
         d="m 1710.772,357.2443 v 68.3292 h 11 v -68.3292 z"
         id="path368" />
    </clipPath>
    <clipPath
       clipPathUnits="userSpaceOnUse"
       id="clipPath376">
      <path
         d="M 0,0 H 1920 V 1080 H 0 Z"
         id="path374" />
    </clipPath>
    <clipPath
       clipPathUnits="userSpaceOnUse"
       id="clipPath382">
      <path
         d="m 1698.272,340.2443 h 36 v 102.3292 h -36 z"
         id="path380" />
    </clipPath>
    <clipPath
       clipPathUnits="userSpaceOnUse"
       id="clipPath386">
      <path
         d="m 1710,357 h 12 v 69 h -12 z"
         id="path384" />
    </clipPath>
    <clipPath
       clipPathUnits="userSpaceOnUse"
       id="clipPath408">
      <path
         d="m 1728.232,358.5192 v 65.7794 h 11 v -65.7794 z"
         id="path406" />
    </clipPath>
    <clipPath
       clipPathUnits="userSpaceOnUse"
       id="clipPath414">
      <path
         d="M 0,0 H 1920 V 1080 H 0 Z"
         id="path412" />
    </clipPath>
    <clipPath
       clipPathUnits="userSpaceOnUse"
       id="clipPath420">
      <path
         d="m 1715.732,341.5192 h 36 v 99.7794 h -36 z"
         id="path418" />
    </clipPath>
    <clipPath
       clipPathUnits="userSpaceOnUse"
       id="clipPath424">
      <path
         d="m 1728,358 h 12 v 67 h -12 z"
         id="path422" />
    </clipPath>
    <clipPath
       clipPathUnits="userSpaceOnUse"
       id="clipPath446">
      <path
         d="m 1745.692,347.1624 v 88.4931 h 11 v -88.4931 z"
         id="path444" />
    </clipPath>
    <clipPath
       clipPathUnits="userSpaceOnUse"
       id="clipPath452">
      <path
         d="M 0,0 H 1920 V 1080 H 0 Z"
         id="path450" />
    </clipPath>
    <clipPath
       clipPathUnits="userSpaceOnUse"
       id="clipPath458">
      <path
         d="m 1733.192,330.1624 h 36 v 122.4931 h -36 z"
         id="path456" />
    </clipPath>
    <clipPath
       clipPathUnits="userSpaceOnUse"
       id="clipPath462">
      <path
         d="m 1745,347 h 12 v 89 h -12 z"
         id="path460" />
    </clipPath>
    <clipPath
       clipPathUnits="userSpaceOnUse"
       id="clipPath484">
      <path
         d="m 1763.152,337.7459 v 107.326 h 11 v -107.326 z"
         id="path482" />
    </clipPath>
    <clipPath
       clipPathUnits="userSpaceOnUse"
       id="clipPath490">
      <path
         d="M 0,0 H 1920 V 1080 H 0 Z"
         id="path488" />
    </clipPath>
    <clipPath
       clipPathUnits="userSpaceOnUse"
       id="clipPath496">
      <path
         d="m 1750.652,320.7459 h 36 v 141.326 h -36 z"
         id="path494" />
    </clipPath>
    <clipPath
       clipPathUnits="userSpaceOnUse"
       id="clipPath500">
      <path
         d="m 1763,337 h 12 v 109 h -12 z"
         id="path498" />
    </clipPath>
    <clipPath
       clipPathUnits="userSpaceOnUse"
       id="clipPath522">
      <path
         d="m 1780.611,336.7757 v 118.6829 h 11 V 336.7757 Z"
         id="path520" />
    </clipPath>
    <clipPath
       clipPathUnits="userSpaceOnUse"
       id="clipPath528">
      <path
         d="M 0,0 H 1920 V 1080 H 0 Z"
         id="path526" />
    </clipPath>
    <clipPath
       clipPathUnits="userSpaceOnUse"
       id="clipPath534">
      <path
         d="m 1768.111,319.7757 h 36 v 152.6829 h -36 z"
         id="path532" />
    </clipPath>
    <clipPath
       clipPathUnits="userSpaceOnUse"
       id="clipPath538">
      <path
         d="m 1780,336 h 12 v 120 h -12 z"
         id="path536" />
    </clipPath>
    <clipPath
       clipPathUnits="userSpaceOnUse"
       id="clipPath560">
      <path
         d="m 1815.531,342.4541 v 107.3261 h 11 V 342.4541 Z"
         id="path558" />
    </clipPath>
    <clipPath
       clipPathUnits="userSpaceOnUse"
       id="clipPath566">
      <path
         d="M 0,0 H 1920 V 1080 H 0 Z"
         id="path564" />
    </clipPath>
    <clipPath
       clipPathUnits="userSpaceOnUse"
       id="clipPath572">
      <path
         d="m 1803.031,325.4541 h 36 v 141.3261 h -36 z"
         id="path570" />
    </clipPath>
    <clipPath
       clipPathUnits="userSpaceOnUse"
       id="clipPath576">
      <path
         d="m 1815,342 h 12 v 108 h -12 z"
         id="path574" />
    </clipPath>
    <clipPath
       clipPathUnits="userSpaceOnUse"
       id="clipPath598">
      <path
         d="m 1798.071,316.9706 v 158.2931 h 11 V 316.9706 Z"
         id="path596" />
    </clipPath>
    <clipPath
       clipPathUnits="userSpaceOnUse"
       id="clipPath604">
      <path
         d="M 0,0 H 1920 V 1080 H 0 Z"
         id="path602" />
    </clipPath>
    <clipPath
       clipPathUnits="userSpaceOnUse"
       id="clipPath610">
      <path
         d="m 1785.571,299.9706 h 36 v 192.2931 h -36 z"
         id="path608" />
    </clipPath>
    <clipPath
       clipPathUnits="userSpaceOnUse"
       id="clipPath614">
      <path
         d="m 1798,316 h 12 v 160 h -12 z"
         id="path612" />
    </clipPath>
    <clipPath
       clipPathUnits="userSpaceOnUse"
       id="clipPath636">
      <path
         d="m 1832.991,351.5349 v 89.1645 h 11 v -89.1645 z"
         id="path634" />
    </clipPath>
    <clipPath
       clipPathUnits="userSpaceOnUse"
       id="clipPath642">
      <path
         d="M 0,0 H 1920 V 1080 H 0 Z"
         id="path640" />
    </clipPath>
    <clipPath
       clipPathUnits="userSpaceOnUse"
       id="clipPath648">
      <path
         d="m 1820.491,334.5349 h 36 v 123.1645 h -36 z"
         id="path646" />
    </clipPath>
    <clipPath
       clipPathUnits="userSpaceOnUse"
       id="clipPath652">
      <path
         d="m 1832,351 h 12 v 90 h -12 z"
         id="path650" />
    </clipPath>
    <clipPath
       clipPathUnits="userSpaceOnUse"
       id="clipPath674">
      <path
         d="m 1623.473,342.4541 v 107.3261 h 11 V 342.4541 Z"
         id="path672" />
    </clipPath>
    <clipPath
       clipPathUnits="userSpaceOnUse"
       id="clipPath680">
      <path
         d="M 0,0 H 1920 V 1080 H 0 Z"
         id="path678" />
    </clipPath>
    <clipPath
       clipPathUnits="userSpaceOnUse"
       id="clipPath686">
      <path
         d="m 1610.973,325.4541 h 36 v 141.3261 h -36 z"
         id="path684" />
    </clipPath>
    <clipPath
       clipPathUnits="userSpaceOnUse"
       id="clipPath690">
      <path
         d="m 1623,342 h 12 v 108 h -12 z"
         id="path688" />
    </clipPath>
    <clipPath
       clipPathUnits="userSpaceOnUse"
       id="clipPath712">
      <path
         d="m 1606.014,351.5349 v 89.1645 h 11 v -89.1645 z"
         id="path710" />
    </clipPath>
    <clipPath
       clipPathUnits="userSpaceOnUse"
       id="clipPath718">
      <path
         d="M 0,0 H 1920 V 1080 H 0 Z"
         id="path716" />
    </clipPath>
    <clipPath
       clipPathUnits="userSpaceOnUse"
       id="clipPath724">
      <path
         d="m 1593.514,334.5349 h 36 v 123.1645 h -36 z"
         id="path722" />
    </clipPath>
    <clipPath
       clipPathUnits="userSpaceOnUse"
       id="clipPath728">
      <path
         d="m 1606,351 h 12 v 90 h -12 z"
         id="path726" />
    </clipPath>
    <clipPath
       clipPathUnits="userSpaceOnUse"
       id="clipPath750">
      <path
         d="m 1588.554,364.3924 v 63.4495 h 11 v -63.4495 z"
         id="path748" />
    </clipPath>
    <clipPath
       clipPathUnits="userSpaceOnUse"
       id="clipPath756">
      <path
         d="M 0,0 H 1920 V 1080 H 0 Z"
         id="path754" />
    </clipPath>
    <clipPath
       clipPathUnits="userSpaceOnUse"
       id="clipPath762">
      <path
         d="m 1576.054,347.3924 h 36 v 97.4495 h -36 z"
         id="path760" />
    </clipPath>
    <clipPath
       clipPathUnits="userSpaceOnUse"
       id="clipPath766">
      <path
         d="m 1588,364 h 12 v 64 h -12 z"
         id="path764" />
    </clipPath>
    <clipPath
       clipPathUnits="userSpaceOnUse"
       id="clipPath788">
      <path
         d="m 1573.519,371.9726 v 48.2891 h 11 v -48.2891 z"
         id="path786" />
    </clipPath>
    <clipPath
       clipPathUnits="userSpaceOnUse"
       id="clipPath794">
      <path
         d="M 0,0 H 1920 V 1080 H 0 Z"
         id="path792" />
    </clipPath>
    <clipPath
       clipPathUnits="userSpaceOnUse"
       id="clipPath800">
      <path
         d="m 1561.019,354.9726 h 36 v 82.2891 h -36 z"
         id="path798" />
    </clipPath>
    <clipPath
       clipPathUnits="userSpaceOnUse"
       id="clipPath804">
      <path
         d="m 1573,371 h 12 v 50 h -12 z"
         id="path802" />
    </clipPath>
    <clipPath
       clipPathUnits="userSpaceOnUse"
       id="clipPath826">
      <path
         d="m 1558.484,387.1371 v 17.9601 h 11 v -17.9601 z"
         id="path824" />
    </clipPath>
    <clipPath
       clipPathUnits="userSpaceOnUse"
       id="clipPath832">
      <path
         d="M 0,0 H 1920 V 1080 H 0 Z"
         id="path830" />
    </clipPath>
    <clipPath
       clipPathUnits="userSpaceOnUse"
       id="clipPath838">
      <path
         d="m 1545.984,370.1371 h 36 v 51.9601 h -36 z"
         id="path836" />
    </clipPath>
    <clipPath
       clipPathUnits="userSpaceOnUse"
       id="clipPath842">
      <path
         d="m 1558,387 h 12 v 19 h -12 z"
         id="path840" />
    </clipPath>
  </defs>
  <g
     id="g8"
     transform="matrix(1.3333333,0,0,-1.3333333,-1.71124,905.524)">
    <g
       id="g10" />
    <g
       id="g12">
      <g
         id="g14"
         clip-path="url(#clipPath18)">
        <path
           d="M 0,1080 H 1920 V 0 H 0 Z"
           style="fill:#ffffff;fill-opacity:1;fill-rule:nonzero;stroke:none"
           id="path20" />
        <g
           id="g22"
           transform="translate(56.13,539.805)" />
        <g
           id="g24"
           transform="translate(56.13,539.805)" />
        <g
           id="g26"
           transform="translate(56.13,539.805)" />
        <g
           id="g28"
           transform="translate(960,493.9845)" />
        <g
           id="g30"
           transform="translate(960,493.9845)" />
        <g
           id="g32"
           transform="translate(-1.970825,340.4242)" />
        <g
           id="g34"
           transform="translate(-1.970825,340.4242)" />
      </g>
    </g>
    <g
       id="g36">
      <g
         id="g38"
         clip-path="url(#clipPath42)">
        <g
           id="g44"
           clip-path="url(#clipPath48)">
          <g
             id="g50">
            <g
               id="g56">
              <path
                 d="M 0,0 H 1920 V 1080 H 0 Z"
                 style="fill:url(#linearGradient62);stroke:none"
                 id="path64" />
            </g>
          </g>
        </g>
      </g>
    </g>
    <g
       id="g66">
      <g
         id="g68"
         clip-path="url(#clipPath72)">
        <g
           id="g74"
           clip-path="url(#clipPath78)">
          <g
             id="g80">
            <g
               id="g86">
              <path
                 d="M 0,0 H 1920 V 1080 H 0 Z"
                 style="fill:url(#linearGradient92);stroke:none"
                 id="path94" />
            </g>
          </g>
        </g>
      </g>
    </g>
    <g
       id="g96">
      <g
         id="g98"
         clip-path="url(#clipPath102)">
        <g
           id="g104"
           clip-path="url(#clipPath108)">
          <g
             id="g110">
            <g
               id="g116">
              <path
                 d="M 0,0 H 1920 V 1080 H 0 Z"
                 style="fill:url(#linearGradient122);stroke:none"
                 id="path124" />
            </g>
          </g>
        </g>
      </g>
    </g>
    <g
       id="g126">
      <g
         id="g128"
         clip-path="url(#clipPath132)">
        <g
           id="g134"
           transform="matrix(1,0,0,-1,-5.970836,492.0593)">
          <path
             d="M 0,0 H 1931.942"
             style="fill:none;stroke:#000000;stroke-width:17;stroke-linecap:butt;stroke-linejoin:miter;stroke-miterlimit:4;stroke-dasharray:none;stroke-opacity:1"
             id="path136" />
        </g>
      </g>
    </g>
    <g
       id="g138">
      <g
         id="g140"
         clip-path="url(#clipPath144)">
        <g
           id="g146"
           clip-path="url(#clipPath150)">
          <g
             id="g152"
             transform="matrix(0,1,1,0,1886.02,388.1371)">
            <path
               d="M 0,0 H 15.96012"
               style="fill:none;stroke:#73d203;stroke-width:9;stroke-linecap:butt;stroke-linejoin:miter;stroke-miterlimit:4;stroke-dasharray:none;stroke-opacity:1"
               id="path154" />
          </g>
        </g>
      </g>
    </g>
    <g
       id="g156">
      <g
         id="g158"
         clip-path="url(#clipPath162)">
        <g
           id="g164"
           clip-path="url(#clipPath168)">
          <g
             id="g170"
             transform="matrix(0,1,1,0,1870.985,372.9726)">
            <path
               d="M 0,0 H 46.28915"
               style="fill:none;stroke:#73d203;stroke-width:9;stroke-linecap:butt;stroke-linejoin:miter;stroke-miterlimit:4;stroke-dasharray:none;stroke-opacity:1"
               id="path172" />
          </g>
        </g>
      </g>
    </g>
    <g
       id="g174">
      <g
         id="g176"
         clip-path="url(#clipPath180)">
        <g
           id="g182"
           clip-path="url(#clipPath186)">
          <g
             id="g188" />
          <g
             id="g210">
            <g
               clip-path="url(#clipPath192)"
               opacity="0.95"
               id="g208">
              <g
                 id="g198" />
              <g
                 id="g206">
                <g
                   clip-path="url(#clipPath196)"
                   id="g204">
                  <g
                     transform="matrix(0,1,1,0,1853.525,365.3924)"
                     id="g202">
                    <path
                       d="M 0,0 H 61.44952"
                       style="fill:none;stroke:#73d203;stroke-width:9;stroke-linecap:butt;stroke-linejoin:miter;stroke-miterlimit:4;stroke-dasharray:none;stroke-opacity:1"
                       id="path200" />
                  </g>
                </g>
              </g>
            </g>
          </g>
        </g>
      </g>
    </g>
    <g
       id="g212">
      <g
         id="g214"
         clip-path="url(#clipPath218)">
        <g
           id="g220"
           clip-path="url(#clipPath224)">
          <g
             id="g226" />
          <g
             id="g248">
            <g
               clip-path="url(#clipPath230)"
               opacity="0.65"
               id="g246">
              <g
                 id="g236" />
              <g
                 id="g244">
                <g
                   clip-path="url(#clipPath234)"
                   id="g242">
                  <g
                     transform="matrix(0,1,1,0,1646.761,322.6798)"
                     id="g240">
                    <path
                       d="M 0,0 H 146.8746"
                       style="fill:none;stroke:#73d203;stroke-width:9;stroke-linecap:butt;stroke-linejoin:miter;stroke-miterlimit:4;stroke-dasharray:none;stroke-opacity:1"
                       id="path238" />
                  </g>
                </g>
              </g>
            </g>
          </g>
        </g>
      </g>
    </g>
    <g
       id="g250">
      <g
         id="g252"
         clip-path="url(#clipPath256)">
        <g
           id="g258"
           clip-path="url(#clipPath262)">
          <g
             id="g264" />
          <g
             id="g286">
            <g
               clip-path="url(#clipPath268)"
               opacity="0.7"
               id="g284">
              <g
                 id="g274" />
              <g
                 id="g282">
                <g
                   clip-path="url(#clipPath272)"
                   id="g280">
                  <g
                     transform="matrix(0,1,1,0,1663.893,327.3891)"
                     id="g278">
                    <path
                       d="M 0,0 H 128.0397"
                       style="fill:none;stroke:#73d203;stroke-width:9;stroke-linecap:butt;stroke-linejoin:miter;stroke-miterlimit:4;stroke-dasharray:none;stroke-opacity:1"
                       id="path276" />
                  </g>
                </g>
              </g>
            </g>
          </g>
        </g>
      </g>
    </g>
    <g
       id="g288">
      <g
         id="g290"
         clip-path="url(#clipPath294)">
        <g
           id="g296"
           clip-path="url(#clipPath300)">
          <g
             id="g302" />
          <g
             id="g324">
            <g
               clip-path="url(#clipPath306)"
               opacity="0.7"
               id="g322">
              <g
                 id="g312" />
              <g
                 id="g320">
                <g
                   clip-path="url(#clipPath310)"
                   id="g318">
                  <g
                     transform="matrix(0,1,1,0,1681.353,340.6862)"
                     id="g316">
                    <path
                       d="M 0,0 H 101.4454"
                       style="fill:none;stroke:#73d203;stroke-width:9;stroke-linecap:butt;stroke-linejoin:miter;stroke-miterlimit:4;stroke-dasharray:none;stroke-opacity:1"
                       id="path314" />
                  </g>
                </g>
              </g>
            </g>
          </g>
        </g>
      </g>
    </g>
    <g
       id="g326">
      <g
         id="g328"
         clip-path="url(#clipPath332)">
        <g
           id="g334"
           clip-path="url(#clipPath338)">
          <g
             id="g340" />
          <g
             id="g362">
            <g
               clip-path="url(#clipPath344)"
               opacity="0.75"
               id="g360">
              <g
                 id="g350" />
              <g
                 id="g358">
                <g
                   clip-path="url(#clipPath348)"
                   id="g356">
                  <g
                     transform="matrix(0,1,1,0,1698.812,352.5349)"
                     id="g354">
                    <path
                       d="M 0,0 H 77.74802"
                       style="fill:none;stroke:#73d203;stroke-width:9;stroke-linecap:butt;stroke-linejoin:miter;stroke-miterlimit:4;stroke-dasharray:none;stroke-opacity:1"
                       id="path352" />
                  </g>
                </g>
              </g>
            </g>
          </g>
        </g>
      </g>
    </g>
    <g
       id="g364">
      <g
         id="g366"
         clip-path="url(#clipPath370)">
        <g
           id="g372"
           clip-path="url(#clipPath376)">
          <g
             id="g378" />
          <g
             id="g400">
            <g
               clip-path="url(#clipPath382)"
               opacity="0.75"
               id="g398">
              <g
                 id="g388" />
              <g
                 id="g396">
                <g
                   clip-path="url(#clipPath386)"
                   id="g394">
                  <g
                     transform="matrix(0,1,1,0,1716.272,358.2443)"
                     id="g392">
                    <path
                       d="M 0,0 H 66.32926"
                       style="fill:none;stroke:#73d203;stroke-width:9;stroke-linecap:butt;stroke-linejoin:miter;stroke-miterlimit:4;stroke-dasharray:none;stroke-opacity:1"
                       id="path390" />
                  </g>
                </g>
              </g>
            </g>
          </g>
        </g>
      </g>
    </g>
    <g
       id="g402">
      <g
         id="g404"
         clip-path="url(#clipPath408)">
        <g
           id="g410"
           clip-path="url(#clipPath414)">
          <g
             id="g416" />
          <g
             id="g438">
            <g
               clip-path="url(#clipPath420)"
               opacity="0.8"
               id="g436">
              <g
                 id="g426" />
              <g
                 id="g434">
                <g
                   clip-path="url(#clipPath424)"
                   id="g432">
                  <g
                     transform="matrix(0,1,1,0,1733.732,359.5192)"
                     id="g430">
                    <path
                       d="M 0,0 H 63.77945"
                       style="fill:none;stroke:#73d203;stroke-width:9;stroke-linecap:butt;stroke-linejoin:miter;stroke-miterlimit:4;stroke-dasharray:none;stroke-opacity:1"
                       id="path428" />
                  </g>
                </g>
              </g>
            </g>
          </g>
        </g>
      </g>
    </g>
    <g
       id="g440">
      <g
         id="g442"
         clip-path="url(#clipPath446)">
        <g
           id="g448"
           clip-path="url(#clipPath452)">
          <g
             id="g454" />
          <g
             id="g476">
            <g
               clip-path="url(#clipPath458)"
               opacity="0.8"
               id="g474">
              <g
                 id="g464" />
              <g
                 id="g472">
                <g
                   clip-path="url(#clipPath462)"
                   id="g470">
                  <g
                     transform="matrix(0,1,1,0,1751.192,348.1624)"
                     id="g468">
                    <path
                       d="M 0,0 H 86.49309"
                       style="fill:none;stroke:#73d203;stroke-width:9;stroke-linecap:butt;stroke-linejoin:miter;stroke-miterlimit:4;stroke-dasharray:none;stroke-opacity:1"
                       id="path466" />
                  </g>
                </g>
              </g>
            </g>
          </g>
        </g>
      </g>
    </g>
    <g
       id="g478">
      <g
         id="g480"
         clip-path="url(#clipPath484)">
        <g
           id="g486"
           clip-path="url(#clipPath490)">
          <g
             id="g492" />
          <g
             id="g514">
            <g
               clip-path="url(#clipPath496)"
               opacity="0.85"
               id="g512">
              <g
                 id="g502" />
              <g
                 id="g510">
                <g
                   clip-path="url(#clipPath500)"
                   id="g508">
                  <g
                     transform="matrix(0,1,1,0,1768.652,338.7459)"
                     id="g506">
                    <path
                       d="M 0,0 H 105.326"
                       style="fill:none;stroke:#73d203;stroke-width:9;stroke-linecap:butt;stroke-linejoin:miter;stroke-miterlimit:4;stroke-dasharray:none;stroke-opacity:1"
                       id="path504" />
                  </g>
                </g>
              </g>
            </g>
          </g>
        </g>
      </g>
    </g>
    <g
       id="g516">
      <g
         id="g518"
         clip-path="url(#clipPath522)">
        <g
           id="g524"
           clip-path="url(#clipPath528)">
          <g
             id="g530" />
          <g
             id="g552">
            <g
               clip-path="url(#clipPath534)"
               opacity="0.85"
               id="g550">
              <g
                 id="g540" />
              <g
                 id="g548">
                <g
                   clip-path="url(#clipPath538)"
                   id="g546">
                  <g
                     transform="matrix(0,1,1,0,1786.111,337.7757)"
                     id="g544">
                    <path
                       d="M 0,0 H 116.6829"
                       style="fill:none;stroke:#73d203;stroke-width:9;stroke-linecap:butt;stroke-linejoin:miter;stroke-miterlimit:4;stroke-dasharray:none;stroke-opacity:1"
                       id="path542" />
                  </g>
                </g>
              </g>
            </g>
          </g>
        </g>
      </g>
    </g>
    <g
       id="g554">
      <g
         id="g556"
         clip-path="url(#clipPath560)">
        <g
           id="g562"
           clip-path="url(#clipPath566)">
          <g
             id="g568" />
          <g
             id="g590">
            <g
               clip-path="url(#clipPath572)"
               opacity="0.9"
               id="g588">
              <g
                 id="g578" />
              <g
                 id="g586">
                <g
                   clip-path="url(#clipPath576)"
                   id="g584">
                  <g
                     transform="matrix(0,1,1,0,1821.031,343.4541)"
                     id="g582">
                    <path
                       d="M 0,0 H 105.326"
                       style="fill:none;stroke:#73d203;stroke-width:9;stroke-linecap:butt;stroke-linejoin:miter;stroke-miterlimit:4;stroke-dasharray:none;stroke-opacity:1"
                       id="path580" />
                  </g>
                </g>
              </g>
            </g>
          </g>
        </g>
      </g>
    </g>
    <g
       id="g592">
      <g
         id="g594"
         clip-path="url(#clipPath598)">
        <g
           id="g600"
           clip-path="url(#clipPath604)">
          <g
             id="g606" />
          <g
             id="g628">
            <g
               clip-path="url(#clipPath610)"
               opacity="0.9"
               id="g626">
              <g
                 id="g616" />
              <g
                 id="g624">
                <g
                   clip-path="url(#clipPath614)"
                   id="g622">
                  <g
                     transform="matrix(0,1,1,0,1803.571,317.9706)"
                     id="g620">
                    <path
                       d="M 0,0 H 156.2931"
                       style="fill:none;stroke:#73d203;stroke-width:9;stroke-linecap:butt;stroke-linejoin:miter;stroke-miterlimit:4;stroke-dasharray:none;stroke-opacity:1"
                       id="path618" />
                  </g>
                </g>
              </g>
            </g>
          </g>
        </g>
      </g>
    </g>
    <g
       id="g630">
      <g
         id="g632"
         clip-path="url(#clipPath636)">
        <g
           id="g638"
           clip-path="url(#clipPath642)">
          <g
             id="g644" />
          <g
             id="g666">
            <g
               clip-path="url(#clipPath648)"
               opacity="0.95"
               id="g664">
              <g
                 id="g654" />
              <g
                 id="g662">
                <g
                   clip-path="url(#clipPath652)"
                   id="g660">
                  <g
                     transform="matrix(0,1,1,0,1838.491,352.5349)"
                     id="g658">
                    <path
                       d="M 0,0 H 87.16448"
                       style="fill:none;stroke:#73d203;stroke-width:9;stroke-linecap:butt;stroke-linejoin:miter;stroke-miterlimit:4;stroke-dasharray:none;stroke-opacity:1"
                       id="path656" />
                  </g>
                </g>
              </g>
            </g>
          </g>
        </g>
      </g>
    </g>
    <g
       id="g668">
      <g
         id="g670"
         clip-path="url(#clipPath674)">
        <g
           id="g676"
           clip-path="url(#clipPath680)">
          <g
             id="g682" />
          <g
             id="g704">
            <g
               clip-path="url(#clipPath686)"
               opacity="0.65"
               id="g702">
              <g
                 id="g692" />
              <g
                 id="g700">
                <g
                   clip-path="url(#clipPath690)"
                   id="g698">
                  <g
                     transform="matrix(0,1,1,0,1628.973,343.4541)"
                     id="g696">
                    <path
                       d="M 0,0 H 105.326"
                       style="fill:none;stroke:#73d203;stroke-width:9;stroke-linecap:butt;stroke-linejoin:miter;stroke-miterlimit:4;stroke-dasharray:none;stroke-opacity:1"
                       id="path694" />
                  </g>
                </g>
              </g>
            </g>
          </g>
        </g>
      </g>
    </g>
    <g
       id="g706">
      <g
         id="g708"
         clip-path="url(#clipPath712)">
        <g
           id="g714"
           clip-path="url(#clipPath718)">
          <g
             id="g720" />
          <g
             id="g742">
            <g
               clip-path="url(#clipPath724)"
               opacity="0.6"
               id="g740">
              <g
                 id="g730" />
              <g
                 id="g738">
                <g
                   clip-path="url(#clipPath728)"
                   id="g736">
                  <g
                     transform="matrix(0,1,1,0,1611.514,352.5349)"
                     id="g734">
                    <path
                       d="M 0,0 H 87.16448"
                       style="fill:none;stroke:#73d203;stroke-width:9;stroke-linecap:butt;stroke-linejoin:miter;stroke-miterlimit:4;stroke-dasharray:none;stroke-opacity:1"
                       id="path732" />
                  </g>
                </g>
              </g>
            </g>
          </g>
        </g>
      </g>
    </g>
    <g
       id="g744">
      <g
         id="g746"
         clip-path="url(#clipPath750)">
        <g
           id="g752"
           clip-path="url(#clipPath756)">
          <g
             id="g758" />
          <g
             id="g780">
            <g
               clip-path="url(#clipPath762)"
               opacity="0.6"
               id="g778">
              <g
                 id="g768" />
              <g
                 id="g776">
                <g
                   clip-path="url(#clipPath766)"
                   id="g774">
                  <g
                     transform="matrix(0,1,1,0,1594.054,365.3924)"
                     id="g772">
                    <path
                       d="M 0,0 H 61.44952"
                       style="fill:none;stroke:#73d203;stroke-width:9;stroke-linecap:butt;stroke-linejoin:miter;stroke-miterlimit:4;stroke-dasharray:none;stroke-opacity:1"
                       id="path770" />
                  </g>
                </g>
              </g>
            </g>
          </g>
        </g>
      </g>
    </g>
    <g
       id="g782">
      <g
         id="g784"
         clip-path="url(#clipPath788)">
        <g
           id="g790"
           clip-path="url(#clipPath794)">
          <g
             id="g796" />
          <g
             id="g818">
            <g
               clip-path="url(#clipPath800)"
               opacity="0.55"
               id="g816">
              <g
                 id="g806" />
              <g
                 id="g814">
                <g
                   clip-path="url(#clipPath804)"
                   id="g812">
                  <g
                     transform="matrix(0,1,1,0,1579.019,372.9726)"
                     id="g810">
                    <path
                       d="M 0,0 H 46.28915"
                       style="fill:none;stroke:#73d203;stroke-width:9;stroke-linecap:butt;stroke-linejoin:miter;stroke-miterlimit:4;stroke-dasharray:none;stroke-opacity:1"
                       id="path808" />
                  </g>
                </g>
              </g>
            </g>
          </g>
        </g>
      </g>
    </g>
    <g
       id="g820">
      <g
         id="g822"
         clip-path="url(#clipPath826)">
        <g
           id="g828"
           clip-path="url(#clipPath832)">
          <g
             id="g834" />
          <g
             id="g856">
            <g
               clip-path="url(#clipPath838)"
               opacity="0.55"
               id="g854">
              <g
                 id="g844" />
              <g
                 id="g852">
                <g
                   clip-path="url(#clipPath842)"
                   id="g850">
                  <g
                     transform="matrix(0,1,1,0,1563.984,388.1371)"
                     id="g848">
                    <path
                       d="M 0,0 H 15.96012"
                       style="fill:none;stroke:#73d203;stroke-width:9;stroke-linecap:butt;stroke-linejoin:miter;stroke-miterlimit:4;stroke-dasharray:none;stroke-opacity:1"
                       id="path846" />
                  </g>
                </g>
              </g>
            </g>
          </g>
        </g>
      </g>
    </g>
  </g>
</svg>
